<svg width="512" height="512" viewBox="0 0 512 512" fill="none" xmlns="http://www.w3.org/2000/svg">
<path d="M238 346C238 353.667 237.333 360.333 236 366C237.333 371.333 238 378 238 386C238 393.667 237.333 400.333 236 406H196C194.667 400.333 194 393.667 194 386C194 378 194.667 371.333 196 366C194.667 360.333 194 353.667 194 346C194 338 194.667 331.333 196 326H116C117.333 331.333 118 338 118 346C118 353.667 117.333 360.333 116 366C117.333 371.333 118 378 118 386C118 393.667 117.333 400.333 116 406H76C74.6667 400.333 74 393.667 74 386C74 378 74.6667 371.333 76 366C74.6667 360.333 74 353.667 74 346C74 338 74.6667 331.333 76 326H91C89.6667 320.333 89 313.667 89 306C89 298 89.6667 291.333 91 286C89.6667 280.333 89 273.667 89 266C89 258 89.6667 251.333 91 246H101C99.6667 240.333 99 233.667 99 226C99 218 99.6667 211.333 101 206H116C114.667 200.333 114 193.667 114 186C114 178 114.667 171.333 116 166H126C124.667 160.333 124 153.667 124 146C124 138 124.667 131.333 126 126H186C187.333 131.333 188 138 188 146C188 153.667 187.333 160.333 186 166H196C197.333 171.333 198 178 198 186C198 193.667 197.333 200.333 196 206H211C212.333 211.333 213 218 213 226C213 233.667 212.333 240.333 211 246H221C222.333 251.333 223 258 223 266C223 273.667 222.333 280.333 221 286C222.333 291.333 223 298 223 306C223 313.667 222.333 320.333 221 326H236C237.333 331.333 238 338 238 346ZM181 286C179.667 280.333 179 273.667 179 266C179 258 179.667 251.333 181 246H171C169.667 240.333 169 233.667 169 226C169 218 169.667 211.333 171 206H141C142.333 211.333 143 218 143 226C143 233.667 142.333 240.333 141 246H131C132.333 251.333 133 258 133 266C133 273.667 132.333 280.333 131 286H181ZM436.195 166C437.529 171.333 438.195 178 438.195 186C438.195 193.667 437.529 200.333 436.195 206C437.529 211.333 438.195 218 438.195 226C438.195 233.667 437.529 240.333 436.195 246C437.529 251.333 438.195 258 438.195 266C438.195 273.667 437.529 280.333 436.195 286C437.529 291.333 438.195 298 438.195 306C438.195 313.667 437.529 320.333 436.195 326C437.529 331.333 438.195 338 438.195 346C438.195 353.667 437.529 360.333 436.195 366C437.529 371.333 438.195 378 438.195 386C438.195 393.667 437.529 400.333 436.195 406H396.195C394.862 400.333 394.195 393.667 394.195 386C394.195 378 394.862 371.333 396.195 366C394.862 360.333 394.195 353.667 394.195 346C394.195 338 394.862 331.333 396.195 326C394.862 320.333 394.195 313.667 394.195 306C394.195 298 394.862 291.333 396.195 286C394.862 280.333 394.195 273.667 394.195 266C394.195 258 394.862 251.333 396.195 246C394.862 240.333 394.195 233.667 394.195 226C394.195 218 394.862 211.333 396.195 206H381.195C382.529 211.333 383.195 218 383.195 226C383.195 233.667 382.529 240.333 381.195 246C382.529 251.333 383.195 258 383.195 266C383.195 273.667 382.529 280.333 381.195 286H371.195C372.529 291.333 373.195 298 373.195 306C373.195 313.667 372.529 320.333 371.195 326C372.529 331.333 373.195 338 373.195 346C373.195 353.667 372.529 360.333 371.195 366H341.195C339.862 360.333 339.195 353.667 339.195 346C339.195 338 339.862 331.333 341.195 326C339.862 320.333 339.195 313.667 339.195 306C339.195 298 339.862 291.333 341.195 286H331.195C329.862 280.333 329.195 273.667 329.195 266C329.195 258 329.862 251.333 331.195 246C329.862 240.333 329.195 233.667 329.195 226C329.195 218 329.862 211.333 331.195 206H316.195C317.529 211.333 318.195 218 318.195 226C318.195 233.667 317.529 240.333 316.195 246C317.529 251.333 318.195 258 318.195 266C318.195 273.667 317.529 280.333 316.195 286C317.529 291.333 318.195 298 318.195 306C318.195 313.667 317.529 320.333 316.195 326C317.529 331.333 318.195 338 318.195 346C318.195 353.667 317.529 360.333 316.195 366C317.529 371.333 318.195 378 318.195 386C318.195 393.667 317.529 400.333 316.195 406H276.195C274.862 400.333 274.195 393.667 274.195 386C274.195 378 274.862 371.333 276.195 366C274.862 360.333 274.195 353.667 274.195 346C274.195 338 274.862 331.333 276.195 326C274.862 320.333 274.195 313.667 274.195 306C274.195 298 274.862 291.333 276.195 286C274.862 280.333 274.195 273.667 274.195 266C274.195 258 274.862 251.333 276.195 246C274.862 240.333 274.195 233.667 274.195 226C274.195 218 274.862 211.333 276.195 206C274.862 200.333 274.195 193.667 274.195 186C274.195 178 274.862 171.333 276.195 166C274.862 160.333 274.195 153.667 274.195 146C274.195 138 274.862 131.333 276.195 126H326.195C327.529 131.333 328.195 138 328.195 146C328.195 153.667 327.529 160.333 326.195 166H341.195C342.529 171.333 343.195 178 343.195 186C343.195 193.667 342.529 200.333 341.195 206H348.695C350.029 211.333 350.695 218 350.695 226C350.695 233.667 350.029 240.333 348.695 246H363.695C362.362 240.333 361.695 233.667 361.695 226C361.695 218 362.362 211.333 363.695 206H371.195C369.862 200.333 369.195 193.667 369.195 186C369.195 178 369.862 171.333 371.195 166H386.195C384.862 160.333 384.195 153.667 384.195 146C384.195 138 384.862 131.333 386.195 126H436.195C437.529 131.333 438.195 138 438.195 146C438.195 153.667 437.529 160.333 436.195 166Z" fill="url(#paint0_linear_286_2)"/>
<defs>
<linearGradient id="paint0_linear_286_2" x1="437.941" y1="127.5" x2="22.6215" y2="319.372" gradientUnits="userSpaceOnUse">
<stop offset="0.2" stop-color="#89DCEB"/>
<stop offset="0.6" stop-color="#A6E3A1"/>
<stop offset="1" stop-color="#CBA6F7"/>
</linearGradient>
</defs>
</svg>
